<svg xmlns="http://www.w3.org/2000/svg" width="70" height="70" viewBox="0 0 70 70">
  <g id="about-icon1" transform="translate(-387 -1205)">
    <circle id="about-icon1-2" data-name="about-icon1" cx="35" cy="35" r="35" transform="translate(387 1205)" fill="#1f97d4"/>
    <g id="sport" transform="translate(404 1222.928)">
      <g id="Group_2" data-name="Group 2" transform="translate(8.393 8.366)">
        <g id="Group_1" data-name="Group 1">
          <path id="Path_1" data-name="Path 1" d="M147.249,134.329l-2.29-2.29L146.8,130.2a1.08,1.08,0,1,0-1.527-1.527l-1.843,1.843-2.29-2.29a1.08,1.08,0,1,0-1.527,1.527l2.29,2.29-1.527,1.527-2.29-2.29a1.08,1.08,0,0,0-1.527,1.527l2.29,2.29-2.3,2.3-2.29-2.29a1.08,1.08,0,0,0-1.527,1.527l2.29,2.29-1.527,1.527-2.29-2.29a1.08,1.08,0,0,0-1.527,1.527l2.29,2.29-1.843,1.843a1.08,1.08,0,0,0,1.527,1.527L133.5,143.5l2.29,2.29a1.08,1.08,0,0,0,1.527-1.527l-2.29-2.29,1.527-1.527,2.29,2.29a1.08,1.08,0,0,0,1.527-1.527l-2.29-2.29,2.3-2.3,2.29,2.29a1.08,1.08,0,0,0,1.527-1.527l-2.29-2.29,1.527-1.527,2.29,2.29a1.08,1.08,0,0,0,1.527-1.527Z" transform="translate(-129.368 -127.905)" fill="#fff"/>
        </g>
      </g>
      <g id="Group_4" data-name="Group 4" transform="translate(0 0.072)">
        <g id="Group_3" data-name="Group 3" transform="translate(0 0)">
          <path id="Path_2" data-name="Path 2" d="M33.382,1.691C31.042-.65,25.187.013,21.872.808q-.225.054-.45.111A32.242,32.242,0,0,0,14.8,3.414a27.568,27.568,0,0,0-7,5.017A27.4,27.4,0,0,0,.771,21.053l-.139.573C-.18,25.154-.583,30.9,1.8,33.276c2.449,2.449,8.412,1.93,11.765,1.138a27.485,27.485,0,0,0,13.081-7.146,27.674,27.674,0,0,0,5.027-7,32.137,32.137,0,0,0,2.6-7.035C35.046,10.026,35.759,4.068,33.382,1.691ZM3.223,31.85c-.994-.994-1.6-4.083-.936-8.18L11.4,32.786C7.307,33.448,4.217,32.844,3.223,31.85Zm21.993-6.009A25.294,25.294,0,0,1,13.85,32.262L2.811,21.223A25.294,25.294,0,0,1,9.232,9.857a27.966,27.966,0,0,1,12.353-6.9L32.122,13.5A28,28,0,0,1,25.216,25.841Zm7.445-14.773L24.017,2.424a21.522,21.522,0,0,1,3.649-.338c2.152,0,3.675.417,4.289,1.032C32.883,4.045,33.367,7.01,32.661,11.068Z" transform="translate(0 -0.072)" fill="#fff"/>
        </g>
      </g>
    </g>
  </g>
</svg>
