<svg xmlns="http://www.w3.org/2000/svg" width="70" height="70" viewBox="0 0 70 70">
  <g id="about-icon2" transform="translate(-387 -1205)">
    <circle id="about-icon2-2" data-name="about-icon2" cx="35" cy="35" r="35" transform="translate(387 1205)" fill="#fbce0f"/>
    <g id="eco-friendly" transform="translate(347.996 1223)">
      <g id="Group_5" data-name="Group 5" transform="translate(61.004 0)">
        <path id="Path_3" data-name="Path 3" d="M86.638,4.1A19.779,19.779,0,0,1,75.2.371L74.9.173a1.023,1.023,0,0,0-1.138,0l-.294.2A19.494,19.494,0,0,1,62.029,4.1,1.025,1.025,0,0,0,61,5.128V16.9A19,19,0,0,0,74.009,34.947a1.019,1.019,0,0,0,.649,0A19,19,0,0,0,87.664,16.9V5.128A1.025,1.025,0,0,0,86.638,4.1ZM85.613,16.9A16.947,16.947,0,0,1,74.334,32.89,16.947,16.947,0,0,1,63.055,16.9V6.129A21.657,21.657,0,0,0,74.334,2.265,21.645,21.645,0,0,0,85.613,6.129ZM73.571,6.63c-.657.732-6.415,7.255-6.415,10.939a7.167,7.167,0,0,0,6.152,7.074v3.18a1.025,1.025,0,1,0,2.051,0v-3.18a7.167,7.167,0,0,0,6.152-7.074c0-3.684-5.758-10.207-6.415-10.939a1.059,1.059,0,0,0-1.526,0Zm5.89,10.939a5.135,5.135,0,0,1-4.1,5.023V17.569a1.025,1.025,0,0,0-2.051,0v5.023a5.135,5.135,0,0,1-4.1-5.023c0-1.955,2.888-6.033,5.127-8.69C76.573,11.535,79.461,15.612,79.461,17.569Z" transform="translate(-61.004 0)" fill="#fff"/>
      </g>
    </g>
  </g>
</svg>
