<svg xmlns="http://www.w3.org/2000/svg" data-name="Layer 1" viewBox="0 0 100 125" x="0px" y="0px"><title>A</title><path fill="#7fa5e0" d="M91.275,26.767a42.827,42.827,0,0,0-6.535-1.578l.093-5.26a.961.961,0,0,0-.607-.91,38.483,38.483,0,0,0-18.189-1.973c-6.77.87-12.413,3.485-16.037,7.4-3.624-3.919-9.267-6.534-16.037-7.4a38.485,38.485,0,0,0-18.189,1.973.961.961,0,0,0-.607.91l.093,5.26a42.827,42.827,0,0,0-6.535,1.578.96.96,0,0,0-.657.931L9.073,75.9a.959.959,0,0,0,1.239.9,53,53,0,0,1,20.544-1.533c5.677.676,13.486,2.563,18.453,7.717a.807.807,0,0,0,.081.074l.016.013c.03.023.06.044.092.064l.023.014a.86.86,0,0,0,.118.058h0l.023.008c.021.008.041.016.062.022l.04.01.05.012a.559.559,0,0,0,.059.008l.032,0c.031,0,.062.005.093.005h0a.935.935,0,0,0,.167-.016l.016,0a1.043,1.043,0,0,0,.154-.045l.023-.008a.924.924,0,0,0,.143-.074l.021-.012a.92.92,0,0,0,.131-.1l.01-.008L50.673,83l.018-.017c4.967-5.154,12.776-7.041,18.453-7.717a53.006,53.006,0,0,1,20.544,1.533.959.959,0,0,0,1.239-.9l1-48.2A.96.96,0,0,0,91.275,26.767ZM66.282,18.951A36.911,36.911,0,0,1,82.9,20.57l-.8,45.322a46.614,46.614,0,0,0-7.363-1.4l4.342-3.381a1.731,1.731,0,0,0,.3-2.426l-4.233-5.436a1.73,1.73,0,0,0-2.426-.3l-1.1.86-1.814-2.329-3.754-8.524a19.013,19.013,0,0,0-5.585-6.508l6.142-4.8a.961.961,0,0,0,.166-1.348l-4.526-5.793a.962.962,0,0,0-1.348-.165L50.96,32.11V26.26C54.242,22.392,59.667,19.8,66.282,18.951ZM35.9,46.313,61.329,26.446l3.343,4.278-14.2,11.1-.49-.629a3.441,3.441,0,0,0-4.889-.71,3.583,3.583,0,0,0-.8,5.078l.493.705-5.536,4.325Zm1.38,4.885-3.838.482,1.395-3.608Zm3.459-12.027a2.022,2.022,0,0,1,.377-4.026l5.321.5L41.8,39.27Zm5.121,5.29a1.682,1.682,0,0,1,.368-2.432,1.509,1.509,0,0,1,2.233.345l1.081,1.389h0l3.7,4.749a.96.96,0,1,0,1.515-1.18l-3.111-3.995,7.243-5.659A17.536,17.536,0,0,1,64.3,43.728l3.8,8.633a.928.928,0,0,0,.122.2l1.886,2.423-9.335,7.27-1.887-2.423a.952.952,0,0,0-.335-.272c-5.139-2.518-5.587-3.41-7.739-7.7-.175-.349-.36-.718-.56-1.111a.909.909,0,0,0-.069-.116ZM59.451,65.719h0Zm-8.491,5.3V56.163c1.274,1.952,2.8,3.173,6.545,5.025l1.751,2.249-.984.766a1.728,1.728,0,0,0-.338,2.376A19.643,19.643,0,0,0,50.96,71.021Zm9.33-4.539-.024-.03L59.6,65.6l12.441-9.689h0l1.711-1.332,4,5.132L63.6,70.733ZM33.718,18.951c6.617.85,12.04,3.443,15.322,7.311v6.8a.953.953,0,0,0,.117.46l-.513.4-.921-.086h0l-6.425-.6a3.954,3.954,0,0,0-1.607,7.684l-5.7,4.452-.014.011a.953.953,0,0,0-.313.407h0v0l-.006.014-2.586,6.683a.963.963,0,0,0,1.015,1.3l7.1-.892a.934.934,0,0,0,.262-.066.978.978,0,0,0,.238-.141l6.2-4.845,2.685,3.838c.167.329.323.639.472.937V71.08c-4.386-4.127-10.246-5.747-14.639-6.368A39.648,39.648,0,0,0,17.9,65.878L17.1,20.57A36.926,36.926,0,0,1,33.718,18.951Zm-22.75,55.66L10,28.373a41.753,41.753,0,0,1,5.291-1.242L16,67.219a.961.961,0,0,0,1.286.886,36.9,36.9,0,0,1,16.849-1.491c4.57.646,10.827,2.432,14.907,7.253v6.247C43.737,75.7,36.485,74,31.083,73.354A55.949,55.949,0,0,0,10.968,74.611Zm78.065,0a55.956,55.956,0,0,0-20.116-1.257C63.516,74,56.263,75.7,50.96,80.112V73.863a17.931,17.931,0,0,1,8.216-5.685L62.2,72.065a1.716,1.716,0,0,0,1.15.652,1.785,1.785,0,0,0,.218.014,1.71,1.71,0,0,0,1.058-.365l7.894-6.148a43.156,43.156,0,0,1,10.193,1.887A.961.961,0,0,0,84,67.219l.7-40.088A41.753,41.753,0,0,1,90,28.373Z"/></svg>